<svg id="visual" viewBox="0 0 900 600" width="900" height="600" xmlns="http://www.w3.org/2000/svg" xmlns:xlink="http://www.w3.org/1999/xlink" version="1.1"><path d="M0 55L60 55L60 97L120 97L120 121L180 121L180 103L240 103L240 97L300 97L300 67L360 67L360 97L420 97L420 97L480 97L480 49L540 49L540 139L600 139L600 37L660 37L660 31L720 31L720 103L780 103L780 109L840 109L840 79L900 79L900 97L900 0L900 0L840 0L840 0L780 0L780 0L720 0L720 0L660 0L660 0L600 0L600 0L540 0L540 0L480 0L480 0L420 0L420 0L360 0L360 0L300 0L300 0L240 0L240 0L180 0L180 0L120 0L120 0L60 0L60 0L0 0Z" fill="#e6473b"></path><path d="M0 85L60 85L60 151L120 151L120 199L180 199L180 205L240 205L240 193L300 193L300 103L360 103L360 139L420 139L420 181L480 181L480 163L540 163L540 199L600 199L600 91L660 91L660 121L720 121L720 193L780 193L780 211L840 211L840 169L900 169L900 199L900 95L900 77L840 77L840 107L780 107L780 101L720 101L720 29L660 29L660 35L600 35L600 137L540 137L540 47L480 47L480 95L420 95L420 95L360 95L360 65L300 65L300 95L240 95L240 101L180 101L180 119L120 119L120 95L60 95L60 53L0 53Z" fill="#ca3a2f"></path><path d="M0 349L60 349L60 343L120 343L120 463L180 463L180 337L240 337L240 397L300 397L300 385L360 385L360 325L420 325L420 469L480 469L480 409L540 409L540 337L600 337L600 343L660 343L660 229L720 229L720 463L780 463L780 451L840 451L840 349L900 349L900 433L900 197L900 167L840 167L840 209L780 209L780 191L720 191L720 119L660 119L660 89L600 89L600 197L540 197L540 161L480 161L480 179L420 179L420 137L360 137L360 101L300 101L300 191L240 191L240 203L180 203L180 197L120 197L120 149L60 149L60 83L0 83Z" fill="#af2d23"></path><path d="M0 469L60 469L60 559L120 559L120 553L180 553L180 511L240 511L240 511L300 511L300 463L360 463L360 433L420 433L420 535L480 535L480 553L540 553L540 475L600 475L600 499L660 499L660 463L720 463L720 541L780 541L780 565L840 565L840 505L900 505L900 505L900 431L900 347L840 347L840 449L780 449L780 461L720 461L720 227L660 227L660 341L600 341L600 335L540 335L540 407L480 407L480 467L420 467L420 323L360 323L360 383L300 383L300 395L240 395L240 335L180 335L180 461L120 461L120 341L60 341L60 347L0 347Z" fill="#952017"></path><path d="M0 601L60 601L60 601L120 601L120 601L180 601L180 601L240 601L240 601L300 601L300 601L360 601L360 601L420 601L420 601L480 601L480 601L540 601L540 601L600 601L600 601L660 601L660 601L720 601L720 601L780 601L780 601L840 601L840 601L900 601L900 601L900 503L900 503L840 503L840 563L780 563L780 539L720 539L720 461L660 461L660 497L600 497L600 473L540 473L540 551L480 551L480 533L420 533L420 431L360 431L360 461L300 461L300 509L240 509L240 509L180 509L180 551L120 551L120 557L60 557L60 467L0 467Z" fill="#7b130c"></path></svg>